<svg id="Слой_1" data-name="Слой 1" xmlns="http://www.w3.org/2000/svg" viewBox="0 0 31.06 31.42"><defs><style>.cls-1{fill:#fff;}</style></defs><path d="M25.91,6,27,4.92c-.44-.63-.44-.63-.95-.14l-.29.3C25.25,5.59,25.25,5.59,25.91,6ZM9,3.37,8.15,1.9l-.64.45.84,1.43ZM2.28,7.52l-.38.69L3.37,9l.35-.67Zm-.25,5,.19-.77L.63,11.29.4,12ZM.64,20.14l1.7-.45c-.2-.3-.36-.65-.46-.63a12.14,12.14,0,0,0-1.5.37ZM19,2c.5.29.83.36.85-.32A2.82,2.82,0,0,1,20,1.09c.07-.22.25-.46-.15-.53s-.54-.08-.61.32S19.07,1.63,19,2ZM29.33,12.45c.48-.12.91-.2,1.31-.34a.54.54,0,0,0,.2-.44c0-.13-.26-.33-.36-.31-.45.08-.89.23-1.37.36ZM11.21.6l.5,1.7L12.42,2,12,.5ZM22.35,3.37l.67.41.83-1.45-.64-.42ZM28,9.05l1.6-1c-.35-.2-.61-.46-.76-.41a9,9,0,0,0-1.22.7ZM16.07.07c-.64-.19-.85,0-.79.57a2.69,2.69,0,0,0,0,.64c.06.16.26.27.4.41.12-.13.33-.25.35-.39A10,10,0,0,0,16.07.07ZM4.35,4.9,5.53,6.1l.62-.64a5.48,5.48,0,0,1-.83-.67C4.94,4.34,4.64,4.34,4.35,4.9ZM0,16H1.62v-.65H0Z"/><path class="cls-1" d="M12.9,12l4,4.87-1.11,1.33-3-3.55-8.1,9.8a13.63,13.63,0,0,0,4,3.43L19.32,15.16l7.52,9.1a21,21,0,0,0,1.23-2c.43-.9.77-1.84,1.11-2.78a.77.77,0,0,0,0-.65c-1.08-1.36-2.19-2.7-3.36-4.13l-3,3.56c-.33-.4-.65-.76-.94-1.14a.39.39,0,0,1,0-.35c1.27-1.57,2.56-3.12,3.9-4.74.55.66,1,1.27,1.54,1.86,1.11,1.34,2.21,2.7,3.36,4A1.54,1.54,0,0,1,31,19.39,15.58,15.58,0,0,1,17.84,31.26c-6.15.79-11.12-1.41-14.91-6.32-.24-.32-.32-.55,0-.91q4.9-5.88,9.78-11.8Zm6.43,5.8-9,10.82c5.77,2.47,12.35.34,15.27-3.2Z"/><path class="cls-1" d="M25.91,6c-.66-.43-.66-.43-.15-.94l.29-.3c.51-.49.51-.49.95.14Z"/><path class="cls-1" d="M9,3.37l-.65.41L7.51,2.35l.64-.45Z"/><path class="cls-1" d="M2.28,7.52l1.44.85L3.37,9,1.9,8.21Z"/><path class="cls-1" d="M2,12.47.4,12l.23-.71,1.59.41Z"/><path class="cls-1" d="M.64,20.14l-.26-.71a12.14,12.14,0,0,1,1.5-.37c.1,0,.26.33.46.63Z"/><path class="cls-1" d="M19,2c.1-.39.21-.76.27-1.14s.32-.38.61-.32.22.31.15.53a2.82,2.82,0,0,0-.18.61C19.8,2.38,19.47,2.31,19,2Z"/><path class="cls-1" d="M29.33,12.45l-.22-.73c.48-.13.92-.28,1.37-.36.1,0,.33.18.36.31a.54.54,0,0,1-.2.44C30.24,12.25,29.81,12.33,29.33,12.45Z"/><path class="cls-1" d="M11.21.6,12,.5,12.42,2l-.71.26Z"/><path class="cls-1" d="M22.35,3.37l.86-1.46.64.42L23,3.78Z"/><path class="cls-1" d="M28,9.05l-.38-.67a9,9,0,0,1,1.22-.7c.15,0,.41.21.76.41Z"/><path class="cls-1" d="M16.07.07a10,10,0,0,1,0,1.23c0,.14-.23.26-.35.39-.14-.14-.34-.25-.4-.41a2.69,2.69,0,0,1,0-.64C15.22.09,15.43-.12,16.07.07Z"/><path class="cls-1" d="M4.35,4.9c.29-.56.59-.56,1-.11a5.48,5.48,0,0,0,.83.67l-.62.64Z"/><path class="cls-1" d="M0,16l0-.65H1.62V16Z"/><path class="cls-1" d="M20.92,24.15H19.51V22.79h1.41Z"/><path class="cls-1" d="M20.94,24.59v1.33H19.51V24.59Z"/><path class="cls-1" d="M19.09,24.15H17.7V22.76h1.39Z"/><path class="cls-1" d="M19.08,25.94H17.71V24.58h1.37Z"/></svg>